<?xml version="1.0" standalone="no"?>
<!DOCTYPE svg PUBLIC "-//W3C//DTD SVG 20010904//EN"
 "http://www.w3.org/TR/2001/REC-SVG-20010904/DTD/svg10.dtd">
<svg version="1.0" xmlns="http://www.w3.org/2000/svg"
 width="480.000000pt" height="480.000000pt" viewBox="0 0 480.000000 480.000000"
 preserveAspectRatio="xMidYMid meet">
<metadata>
Created by potrace 1.11, written by Peter Selinger 2001-2013
</metadata>
<g transform="translate(0.000000,480.000000) scale(0.100000,-0.100000)"
fill="#000000" stroke="none">
<path d="M2206 4660 c-488 -62 -977 -346 -1244 -722 l-47 -67 -96 -1 c-249 -1
-521 -131 -656 -313 -56 -75 -116 -199 -140 -287 -24 -85 -24 -308 0 -435 44
-240 130 -440 274 -634 10 -13 8 -36 -7 -111 -15 -71 -20 -135 -20 -250 0
-347 73 -600 249 -867 156 -238 408 -428 671 -507 47 -14 195 -41 330 -60 135
-19 272 -44 305 -55 86 -28 204 -84 277 -130 117 -73 157 -85 298 -85 141 0
181 12 300 86 167 106 277 140 580 184 135 19 283 46 330 60 471 141 828 581
905 1119 26 178 16 457 -20 580 -4 14 8 38 40 80 25 33 75 119 110 190 104
210 148 398 149 630 1 104 -4 157 -17 205 -24 88 -84 212 -140 287 -136 182
-408 313 -656 313 l-96 1 -34 50 c-58 85 -177 215 -272 297 -245 210 -535 354
-843 418 -135 28 -404 40 -530 24z m-411 -1610 c94 -27 254 -108 340 -172 39
-28 114 -95 168 -148 l97 -97 98 97 c127 126 213 189 347 254 156 76 214 90
365 90 147 0 202 -13 330 -80 96 -51 120 -70 170 -134 19 -25 37 -47 40 -50
19 -17 103 -174 151 -285 17 -38 47 -140 58 -200 7 -33 16 -74 22 -91 18 -58
-22 -193 -92 -311 -86 -143 -299 -322 -469 -394 -41 -17 -82 -34 -90 -39 -19
-9 -34 -181 -20 -225 20 -62 50 -229 50 -279 l0 -51 -83 -47 c-170 -98 -313
-150 -570 -207 -197 -45 -269 -52 -393 -40 -58 5 -113 14 -122 19 -17 9 -111
35 -187 50 -42 9 -186 55 -220 70 -121 56 -179 84 -230 115 -33 19 -72 41 -87
47 -23 10 -28 19 -28 49 0 43 25 182 45 255 19 65 8 233 -15 244 -8 5 -48 22
-88 39 -218 91 -442 302 -518 489 -17 42 -20 61 -13 86 5 17 9 50 9 73 0 46
21 157 46 243 18 63 21 70 65 165 18 39 33 72 33 75 2 16 81 140 88 140 4 0 8
7 8 15 0 8 5 15 10 15 6 0 10 6 10 13 0 6 20 34 45 62 25 27 45 53 45 56 0 19
178 95 258 109 74 14 248 3 327 -20z"/>
<path d="M1537 2538 c-49 -13 -132 -89 -162 -147 -98 -195 -71 -461 62 -595
91 -92 216 -93 308 -1 106 106 150 323 100 496 -34 120 -116 219 -199 244 -56
17 -56 17 -109 3z m73 -238 c0 -23 -29 -35 -36 -15 -4 8 -4 22 0 30 7 20 36 8
36 -15z"/>
<path d="M3151 2535 c-81 -25 -163 -127 -196 -244 -62 -216 24 -486 174 -548
181 -76 354 117 354 392 0 149 -46 269 -132 347 -32 29 -66 50 -95 57 -53 13
-50 13 -105 -4z m79 -235 c0 -23 -29 -35 -36 -15 -4 8 -4 22 0 30 7 20 36 8
36 -15z"/>
<path d="M2146 1864 c-65 -20 -146 -101 -169 -168 -25 -73 -22 -142 9 -204 27
-55 44 -66 44 -30 0 26 43 113 75 153 l25 30 0 -43 c0 -113 95 -179 168 -117
57 47 62 154 12 217 l-20 26 31 6 c40 8 137 8 166 0 l23 -6 -20 -25 c-50 -64
-45 -171 12 -218 75 -63 167 4 168 122 l1 48 35 -40 c39 -43 74 -105 74 -129
0 -33 22 -25 40 16 43 95 17 212 -65 295 -84 83 -188 104 -297 59 l-58 -24
-57 24 c-66 27 -126 29 -197 8z"/>
<path d="M1805 1178 c-77 -44 -56 -129 63 -251 112 -113 266 -209 394 -243 68
-18 208 -18 276 0 127 34 257 112 377 228 116 111 152 195 105 246 -32 34 -62
36 -167 9 -298 -78 -637 -76 -920 3 -83 23 -100 24 -128 8z"/>
</g>
</svg>
